<svg id="svg" version="1.1" xmlns="http://www.w3.org/2000/svg" xmlns:xlink="http://www.w3.org/1999/xlink" width="400" height="400" viewBox="0, 0, 400,400"><g id="svgg"><path id="path0" d="M298.289 181.742 C 264.946 184.343,244.863 208.782,249.639 240.944 C 252.973 263.399,265.299 275.406,300.507 290.492 C 323.803 300.475,329.084 304.612,330.397 313.908 C 332.130 326.181,321.666 334.957,305.278 334.976 C 290.420 334.993,279.508 328.949,270.447 315.684 C 269.268 313.959,268.178 312.548,268.024 312.548 C 267.662 312.548,238.745 329.248,238.123 329.815 C 237.757 330.150,238.066 330.937,239.529 333.397 C 253.103 356.219,275.882 368.149,305.894 368.155 C 347.281 368.162,372.424 343.566,367.666 307.727 C 364.507 283.934,351.990 271.589,314.805 255.591 C 292.792 246.121,288.111 242.664,286.306 234.547 C 283.780 223.185,291.651 214.280,304.183 214.321 C 313.558 214.352,320.594 218.467,326.039 227.103 C 327.191 228.930,328.094 229.990,328.399 229.873 C 329.275 229.537,356.840 211.747,356.949 211.448 C 357.203 210.746,350.729 201.751,347.560 198.404 C 335.726 185.903,318.710 180.149,298.289 181.742 M179.752 250.856 L 179.634 318.061 178.796 321.200 C 176.202 330.911,170.979 334.631,159.916 334.648 C 150.135 334.663,144.329 330.593,137.525 318.953 C 136.443 317.102,135.448 315.630,135.313 315.683 C 135.178 315.736,128.304 319.875,120.036 324.881 L 105.004 333.983 106.160 336.288 C 117.166 358.227,139.386 369.904,166.634 368.067 C 196.136 366.079,213.456 349.967,216.713 321.483 C 216.966 319.264,217.105 294.429,217.107 250.856 L 217.110 183.650 198.490 183.650 L 179.870 183.650 179.752 250.856 " stroke="none" fill="#2d2d2b" fill-rule="evenodd"></path><path id="path1" d="M0.000 200.000 L 0.000 400.000 200.000 400.000 L 400.000 400.000 400.000 200.000 L 400.000 0.000 200.000 0.000 L 0.000 0.000 0.000 200.000 M315.399 182.340 C 328.593 184.079,338.849 189.202,347.560 198.404 C 350.729 201.751,357.203 210.746,356.949 211.448 C 356.840 211.747,329.275 229.537,328.399 229.873 C 328.094 229.990,327.191 228.930,326.039 227.103 C 314.407 208.654,287.246 210.222,286.020 229.414 C 285.302 240.658,289.977 244.909,314.805 255.591 C 351.990 271.589,364.507 283.934,367.666 307.727 C 372.424 343.566,347.281 368.162,305.894 368.155 C 275.882 368.149,253.103 356.219,239.529 333.397 C 238.066 330.937,237.757 330.150,238.123 329.815 C 238.745 329.248,267.662 312.548,268.024 312.548 C 268.178 312.548,269.268 313.959,270.447 315.684 C 279.508 328.949,290.420 334.993,305.278 334.976 C 321.666 334.957,332.130 326.181,330.397 313.908 C 329.084 304.612,323.803 300.475,300.507 290.492 C 265.299 275.406,252.973 263.399,249.639 240.944 C 243.956 202.673,273.037 176.757,315.399 182.340 M217.107 250.856 C 217.105 294.429,216.966 319.264,216.713 321.483 C 213.456 349.967,196.136 366.079,166.634 368.067 C 139.386 369.904,117.166 358.227,106.160 336.288 L 105.004 333.983 120.036 324.881 C 128.304 319.875,135.178 315.736,135.313 315.683 C 135.448 315.630,136.443 317.102,137.525 318.953 C 144.329 330.593,150.135 334.663,159.916 334.648 C 170.979 334.631,176.202 330.911,178.796 321.200 L 179.634 318.061 179.752 250.856 L 179.870 183.650 198.490 183.650 L 217.110 183.650 217.107 250.856 " stroke="none" fill="#fbdb3c" fill-rule="evenodd"></path></g></svg>