<svg id="svg" version="1.1" xmlns="http://www.w3.org/2000/svg" xmlns:xlink="http://www.w3.org/1999/xlink" width="400" height="210" viewBox="0, 0, 400,210"><g id="svgg"><path id="path0" d="M184.296 6.035 C 184.730 6.081,185.439 6.081,185.872 6.035 C 186.305 5.990,185.951 5.953,185.084 5.953 C 184.217 5.953,183.863 5.990,184.296 6.035 M214.338 6.035 C 214.772 6.081,215.481 6.081,215.914 6.035 C 216.347 5.990,215.993 5.953,215.126 5.953 C 214.259 5.953,213.905 5.990,214.338 6.035 M180.745 6.331 C 181.023 6.492,181.199 6.490,181.365 6.324 C 181.534 6.155,181.429 6.094,180.977 6.099 C 180.434 6.104,180.405 6.133,180.745 6.331 M175.896 6.453 C 176.215 6.502,176.688 6.500,176.946 6.450 C 177.205 6.401,176.943 6.361,176.366 6.363 C 175.788 6.364,175.576 6.405,175.896 6.453 M223.689 6.451 C 223.951 6.501,224.329 6.499,224.530 6.447 C 224.731 6.394,224.517 6.353,224.055 6.356 C 223.592 6.358,223.428 6.401,223.689 6.451 M172.479 6.703 C 171.955 6.851,171.955 6.852,172.426 6.977 C 172.686 7.047,172.899 7.025,172.899 6.929 C 172.899 6.832,173.065 6.710,173.267 6.657 C 173.509 6.594,173.527 6.560,173.319 6.558 C 173.146 6.556,172.768 6.621,172.479 6.703 M239.026 7.922 C 239.287 7.972,239.665 7.970,239.866 7.917 C 240.067 7.865,239.853 7.824,239.391 7.826 C 238.929 7.828,238.764 7.871,239.026 7.922 M147.374 9.454 C 147.303 9.569,147.386 9.664,147.559 9.664 C 147.733 9.664,147.933 9.569,148.004 9.454 C 148.076 9.338,147.992 9.244,147.819 9.244 C 147.646 9.244,147.445 9.338,147.374 9.454 M260.399 10.924 C 260.471 11.040,260.718 11.134,260.949 11.134 C 261.180 11.134,261.311 11.040,261.239 10.924 C 261.168 10.809,260.921 10.714,260.689 10.714 C 260.458 10.714,260.328 10.809,260.399 10.924 M111.459 17.002 C 111.248 17.343,111.705 17.446,111.977 17.120 C 112.188 16.865,112.175 16.807,111.908 16.807 C 111.727 16.807,111.525 16.895,111.459 17.002 M300.418 20.901 C 300.561 21.073,300.763 21.161,300.868 21.097 C 301.136 20.931,300.879 20.588,300.487 20.588 C 300.220 20.588,300.207 20.647,300.418 20.901 M305.987 22.689 C 306.059 22.805,306.259 22.899,306.432 22.899 C 306.606 22.899,306.689 22.805,306.618 22.689 C 306.546 22.574,306.346 22.479,306.173 22.479 C 305.999 22.479,305.916 22.574,305.987 22.689 M180.302 32.073 C 179.726 32.305,179.561 32.992,177.229 44.853 C 175.208 55.134,170.473 79.107,168.702 88.025 C 167.681 93.167,166.502 99.170,166.081 101.366 C 165.661 103.561,165.042 106.681,164.707 108.298 C 164.371 109.916,163.620 113.697,163.036 116.702 C 162.453 119.706,161.455 124.793,160.820 128.006 C 159.434 135.007,159.411 135.375,160.325 135.694 C 161.163 135.986,182.292 136.017,183.054 135.727 C 183.793 135.446,183.513 136.704,189.389 107.261 C 195.393 77.176,195.016 78.912,195.641 78.474 C 196.199 78.083,216.092 77.987,218.086 78.365 C 221.313 78.977,222.677 80.596,222.683 83.824 C 222.687 85.566,222.602 86.257,221.988 89.496 C 221.824 90.362,221.248 93.435,220.708 96.324 C 220.169 99.212,219.356 103.466,218.902 105.777 C 218.448 108.088,217.644 112.295,217.115 115.126 C 216.586 117.957,215.974 121.218,215.754 122.374 C 213.166 135.993,213.204 135.575,214.539 135.817 C 216.669 136.204,238.221 135.822,238.653 135.390 C 239.008 135.035,239.281 133.777,240.225 128.142 C 240.854 124.392,241.609 119.953,241.904 118.277 C 242.199 116.602,243.205 110.741,244.139 105.252 C 245.074 99.764,246.354 92.248,246.985 88.550 C 249.150 75.854,248.589 72.023,243.806 66.858 C 238.049 60.640,230.856 58.841,211.698 58.830 C 204.792 58.826,200.244 58.744,200.011 58.619 C 199.191 58.180,199.194 58.154,201.155 48.004 C 201.781 44.769,202.491 41.035,202.734 39.706 C 202.977 38.377,203.359 36.377,203.584 35.261 C 204.327 31.563,205.614 31.929,191.949 31.949 C 185.689 31.958,180.448 32.014,180.302 32.073 M69.170 32.990 C 68.587 33.224,68.560 33.388,69.112 33.346 C 69.340 33.329,69.574 33.193,69.631 33.044 C 69.688 32.895,69.714 32.779,69.689 32.786 C 69.664 32.794,69.430 32.885,69.170 32.990 M336.721 36.384 C 336.858 36.522,337.137 36.658,337.340 36.686 C 337.668 36.732,337.664 36.704,337.302 36.436 C 336.808 36.070,336.367 36.031,336.721 36.384 M37.395 53.887 C 37.003 54.291,36.779 54.622,36.897 54.622 C 37.112 54.622,37.833 53.905,38.111 53.414 C 38.362 52.971,38.140 53.118,37.395 53.887 M34.336 56.775 L 33.718 57.458 34.401 56.841 C 34.777 56.502,35.084 56.194,35.084 56.158 C 35.084 55.996,34.911 56.139,34.336 56.775 M86.042 59.296 C 85.433 59.833,86.447 54.933,76.443 105.672 C 75.634 109.774,74.323 116.392,73.530 120.378 C 72.736 124.364,71.981 128.241,71.852 128.992 C 71.722 129.743,71.247 132.153,70.796 134.349 C 68.704 144.534,65.723 159.897,65.611 161.076 C 65.490 162.351,65.501 162.388,66.055 162.599 C 66.882 162.913,88.254 162.893,88.947 162.578 C 89.667 162.249,89.765 161.918,90.856 156.092 C 94.249 137.975,94.521 136.671,94.980 136.292 C 95.393 135.950,96.373 135.924,108.836 135.924 C 119.691 135.924,122.720 135.863,124.727 135.601 C 144.959 132.964,160.704 116.787,163.569 95.693 C 166.261 75.876,158.216 63.330,140.544 59.789 C 135.963 58.870,134.493 58.824,109.938 58.824 L 86.578 58.824 86.042 59.296 M258.353 59.049 C 257.722 59.417,257.582 59.924,256.287 66.541 C 255.592 70.096,254.323 76.502,253.467 80.777 C 252.612 85.053,250.531 95.546,248.843 104.097 C 247.155 112.647,244.931 123.897,243.901 129.097 C 242.871 134.296,241.547 141.008,240.958 144.013 C 240.369 147.017,239.374 152.065,238.746 155.230 C 237.470 161.669,237.410 162.276,238.021 162.603 C 238.304 162.754,242.090 162.807,249.805 162.768 C 263.089 162.700,261.684 163.042,262.259 159.741 C 262.654 157.470,263.869 151.049,264.499 147.899 C 264.718 146.801,265.280 143.824,265.748 141.282 C 266.450 137.463,266.674 136.596,267.041 136.292 C 267.452 135.950,268.427 135.924,280.809 135.924 C 297.209 135.924,299.226 135.732,305.455 133.572 C 324.150 127.090,336.028 109.625,336.001 88.655 C 335.979 70.708,326.348 60.704,307.483 59.034 C 304.281 58.750,258.842 58.764,258.353 59.049 M30.134 60.977 L 29.517 61.660 30.200 61.043 C 30.575 60.703,30.882 60.396,30.882 60.360 C 30.882 60.198,30.709 60.340,30.134 60.977 M27.103 64.337 L 26.197 65.441 27.216 64.451 C 27.777 63.906,28.185 63.409,28.122 63.347 C 28.060 63.284,27.601 63.730,27.103 64.337 M373.885 65.742 C 373.944 65.966,374.171 66.312,374.391 66.511 C 374.781 66.864,374.783 66.857,374.462 66.213 C 374.076 65.440,373.733 65.159,373.885 65.742 M25.438 66.260 C 25.241 66.498,25.245 66.554,25.461 66.523 C 25.751 66.480,25.938 66.204,25.783 66.049 C 25.732 65.998,25.577 66.093,25.438 66.260 M22.125 70.536 C 22.053 70.738,21.954 70.998,21.906 71.113 C 21.857 71.229,21.966 71.140,22.148 70.916 C 22.479 70.508,22.578 70.168,22.367 70.168 C 22.306 70.168,22.197 70.334,22.125 70.536 M18.966 75.473 C 18.579 75.972,18.441 76.561,18.775 76.283 C 18.938 76.148,19.121 75.851,19.180 75.623 C 19.306 75.144,19.250 75.105,18.966 75.473 M128.887 78.746 C 137.056 80.977,139.510 85.861,137.614 96.113 C 135.316 108.538,129.722 114.278,118.067 116.170 C 114.111 116.813,101.061 116.817,100.420 116.176 C 99.905 115.661,99.883 116.111,100.631 111.870 C 100.977 109.905,101.542 106.502,101.885 104.307 C 102.228 102.111,102.795 98.734,103.145 96.802 C 103.495 94.870,103.916 92.365,104.081 91.235 C 105.280 83.014,106.213 78.524,106.773 78.285 C 107.690 77.892,127.254 78.301,128.887 78.746 M299.723 78.481 C 309.144 80.427,311.895 85.819,309.417 97.479 C 307.086 108.446,301.998 113.671,291.387 115.995 C 288.556 116.615,273.351 116.876,272.594 116.317 C 272.021 115.895,272.021 115.901,273.938 104.517 C 274.872 98.971,275.818 93.298,276.039 91.912 C 276.261 90.525,276.827 87.138,277.297 84.384 C 277.767 81.631,278.151 79.291,278.151 79.185 C 278.151 79.078,278.340 78.803,278.571 78.571 C 279.148 77.995,297.000 77.918,299.723 78.481 M382.353 78.309 C 382.353 78.409,382.490 78.675,382.658 78.899 C 382.952 79.292,382.958 79.290,382.842 78.831 C 382.723 78.357,382.353 77.962,382.353 78.309 M11.269 96.364 C 11.195 96.438,11.134 96.833,11.134 97.241 C 11.134 98.058,11.419 97.932,11.633 97.019 C 11.761 96.475,11.546 96.087,11.269 96.364 M10.872 99.229 C 10.624 99.835,10.686 107.529,10.935 107.101 C 11.059 106.889,11.121 105.136,11.087 102.794 C 11.055 100.622,10.959 99.018,10.872 99.229 M10.718 109.599 C 10.716 110.314,10.809 110.958,10.924 111.029 C 11.199 111.199,11.199 109.039,10.924 108.613 C 10.781 108.391,10.720 108.682,10.718 109.599 M11.173 112.920 C 11.210 113.392,11.332 113.714,11.450 113.655 C 11.703 113.529,11.610 112.584,11.316 112.290 C 11.176 112.150,11.129 112.360,11.173 112.920 M388.394 113.550 C 388.449 113.839,388.531 114.076,388.575 114.076 C 388.619 114.076,388.655 113.839,388.655 113.550 C 388.655 113.262,388.574 113.025,388.475 113.025 C 388.375 113.025,388.339 113.262,388.394 113.550 M18.634 134.025 C 18.772 134.550,19.118 134.809,19.118 134.387 C 19.118 134.221,18.983 133.974,18.819 133.837 C 18.574 133.634,18.541 133.667,18.634 134.025 M377.211 139.781 C 376.976 139.953,376.912 140.114,377.045 140.197 C 377.165 140.271,377.382 140.188,377.527 140.014 C 377.885 139.582,377.685 139.435,377.211 139.781 M26.261 144.814 C 26.261 144.850,26.568 145.157,26.943 145.496 L 27.626 146.113 27.009 145.431 C 26.434 144.794,26.261 144.651,26.261 144.814 M27.731 146.588 C 27.731 146.676,27.922 146.867,28.156 147.013 C 28.550 147.259,28.562 147.248,28.316 146.853 C 28.051 146.430,27.731 146.285,27.731 146.588 M31.933 150.776 C 31.933 150.891,32.122 151.156,32.353 151.366 C 32.584 151.575,32.773 151.698,32.773 151.640 C 32.773 151.582,32.584 151.317,32.353 151.050 C 32.122 150.784,31.933 150.660,31.933 150.776 M52.404 167.552 C 52.855 167.890,53.240 167.960,53.062 167.672 C 52.999 167.571,52.734 167.434,52.472 167.368 C 52.013 167.252,52.010 167.259,52.404 167.552 M344.664 169.033 C 344.604 169.189,344.719 169.241,344.977 169.174 C 345.541 169.026,345.690 168.716,345.178 168.754 C 344.948 168.772,344.716 168.897,344.664 169.033 M56.087 169.847 C 56.213 169.999,56.508 170.173,56.742 170.234 C 57.075 170.321,57.117 170.285,56.938 170.069 C 56.812 169.917,56.518 169.743,56.284 169.682 C 55.951 169.595,55.908 169.631,56.087 169.847 M58.662 171.258 C 58.707 171.395,58.857 171.545,58.994 171.591 C 59.148 171.642,59.195 171.546,59.116 171.341 C 58.970 170.959,58.536 170.880,58.662 171.258 M340.389 171.645 C 340.129 171.750,339.916 171.886,339.916 171.947 C 339.916 172.151,340.250 172.063,340.664 171.750 C 341.128 171.399,341.063 171.374,340.389 171.645 M61.765 173.122 C 61.765 173.206,61.914 173.332,62.097 173.402 C 62.565 173.582,62.606 173.566,62.484 173.249 C 62.373 172.959,61.765 172.852,61.765 173.122 M336.775 173.729 C 336.607 173.835,336.401 173.879,336.317 173.827 C 336.145 173.721,335.831 174.136,335.974 174.280 C 336.074 174.380,337.395 173.766,337.395 173.619 C 337.395 173.471,337.099 173.523,336.775 173.729 M324.578 179.729 C 324.367 179.984,324.380 180.042,324.647 180.042 C 325.039 180.042,325.295 179.699,325.027 179.534 C 324.923 179.469,324.721 179.557,324.578 179.729 M314.292 184.204 C 314.056 184.457,314.090 184.479,314.518 184.349 C 315.198 184.143,315.500 183.837,314.984 183.876 C 314.756 183.893,314.445 184.041,314.292 184.204 M312.229 185.001 C 312.007 185.242,312.014 185.294,312.269 185.294 C 312.626 185.294,312.901 184.951,312.661 184.805 C 312.572 184.752,312.378 184.840,312.229 185.001 M294.326 191.074 C 294.115 191.328,294.128 191.387,294.395 191.387 C 294.787 191.387,295.043 191.044,294.775 190.878 C 294.671 190.814,294.469 190.902,294.326 191.074 M113.150 193.245 C 113.083 193.354,113.182 193.503,113.372 193.575 C 113.836 193.754,113.945 193.604,113.574 193.297 C 113.394 193.148,113.223 193.127,113.150 193.245 M144.643 200.000 C 144.568 200.121,144.763 200.209,145.103 200.207 C 145.561 200.204,145.623 200.158,145.378 200.000 C 144.975 199.739,144.804 199.739,144.643 200.000 M227.416 203.151 C 227.487 203.267,227.753 203.355,228.006 203.347 C 228.450 203.332,228.451 203.325,228.046 203.151 C 227.468 202.903,227.262 202.903,227.416 203.151 M176.418 203.725 C 176.909 203.769,177.713 203.769,178.204 203.725 C 178.695 203.681,178.293 203.645,177.311 203.645 C 176.329 203.645,175.927 203.681,176.418 203.725 M222.212 203.723 C 222.585 203.769,223.246 203.770,223.682 203.725 C 224.118 203.679,223.813 203.641,223.004 203.640 C 222.195 203.639,221.839 203.677,222.212 203.723 M185.672 204.148 C 186.630 204.187,188.143 204.187,189.033 204.148 C 189.923 204.108,189.139 204.076,187.290 204.077 C 185.441 204.077,184.713 204.109,185.672 204.148 M211.808 204.147 C 212.583 204.187,213.906 204.188,214.749 204.148 C 215.592 204.108,214.958 204.075,213.340 204.074 C 211.723 204.074,211.033 204.107,211.808 204.147 " stroke="none" fill="#232434" fill-rule="evenodd"></path><path id="path1" d="M184.244 6.035 C 182.915 6.070,181.698 6.146,181.539 6.204 C 181.381 6.262,179.632 6.355,177.653 6.410 C 174.063 6.511,172.899 6.630,172.899 6.897 C 172.899 6.974,171.647 7.058,170.116 7.082 C 164.976 7.165,162.593 7.351,162.466 7.680 C 162.403 7.846,162.274 7.933,162.179 7.875 C 162.004 7.766,158.802 8.035,155.777 8.413 C 154.853 8.528,153.456 8.681,152.673 8.752 C 151.890 8.823,151.199 8.962,151.138 9.062 C 151.076 9.162,150.415 9.244,149.670 9.244 C 148.924 9.244,148.149 9.332,147.949 9.439 C 147.748 9.547,146.497 9.784,145.168 9.965 C 141.298 10.495,139.836 10.746,139.446 10.947 C 139.245 11.050,138.660 11.134,138.146 11.134 C 137.631 11.134,137.151 11.229,137.080 11.345 C 137.008 11.460,136.565 11.555,136.094 11.555 C 135.623 11.555,134.896 11.642,134.478 11.749 C 132.799 12.178,130.174 12.708,128.518 12.953 C 128.084 13.017,127.676 13.154,127.612 13.257 C 127.548 13.361,127.271 13.445,126.997 13.445 C 126.722 13.445,125.711 13.647,124.751 13.892 C 123.790 14.138,122.579 14.384,122.059 14.438 C 121.539 14.492,121.024 14.622,120.914 14.726 C 120.804 14.831,120.374 14.916,119.958 14.916 C 119.542 14.916,119.112 14.993,119.002 15.088 C 118.892 15.182,118.283 15.380,117.647 15.527 C 116.154 15.874,115.126 16.226,115.126 16.392 C 115.126 16.465,114.854 16.484,114.521 16.435 C 114.188 16.386,113.851 16.450,113.773 16.576 C 113.695 16.703,113.324 16.807,112.950 16.807 C 112.575 16.807,112.161 16.915,112.029 17.047 C 111.897 17.179,111.496 17.310,111.138 17.338 C 110.781 17.366,109.807 17.595,108.973 17.847 C 108.140 18.099,107.080 18.402,106.618 18.521 C 106.155 18.641,105.613 18.824,105.413 18.928 C 105.212 19.032,104.903 19.118,104.727 19.118 C 104.550 19.118,104.242 19.201,104.041 19.302 C 103.377 19.639,101.583 20.170,101.115 20.169 C 100.862 20.169,100.597 20.263,100.525 20.378 C 100.454 20.494,100.211 20.588,99.985 20.588 C 99.759 20.588,99.410 20.682,99.209 20.797 C 98.738 21.066,97.185 21.617,96.113 21.894 C 95.651 22.014,94.910 22.289,94.465 22.505 C 94.021 22.722,93.483 22.899,93.270 22.899 C 93.057 22.899,92.824 22.994,92.752 23.109 C 92.681 23.225,92.410 23.319,92.150 23.319 C 91.890 23.319,91.493 23.458,91.269 23.628 C 91.045 23.797,90.695 23.939,90.491 23.943 C 90.287 23.947,89.956 24.034,89.756 24.136 C 89.028 24.509,87.894 24.984,86.660 25.434 C 85.966 25.686,85.036 26.070,84.591 26.287 C 84.147 26.503,83.640 26.681,83.465 26.681 C 83.290 26.681,82.534 27.012,81.785 27.416 C 81.036 27.820,80.201 28.151,79.930 28.151 C 79.659 28.151,79.382 28.240,79.315 28.348 C 79.248 28.456,78.652 28.746,77.990 28.992 C 76.411 29.579,69.538 32.987,69.538 33.182 C 69.538 33.265,69.407 33.333,69.246 33.333 C 68.788 33.333,67.437 34.030,67.437 34.266 C 67.437 34.383,67.355 34.428,67.255 34.366 C 67.072 34.253,62.346 36.572,61.765 37.060 C 61.591 37.206,61.024 37.539,60.504 37.800 C 59.984 38.061,59.370 38.435,59.139 38.632 C 58.908 38.829,58.435 39.126,58.088 39.293 C 57.742 39.460,56.985 39.884,56.408 40.235 C 55.830 40.587,55.097 41.005,54.779 41.166 C 54.462 41.326,54.202 41.536,54.202 41.632 C 54.202 41.728,54.112 41.807,54.002 41.807 C 53.757 41.807,48.662 45.197,48.564 45.425 C 48.526 45.515,48.399 45.588,48.283 45.588 C 48.051 45.588,47.476 46.010,45.638 47.530 C 44.975 48.077,44.338 48.529,44.223 48.532 C 43.869 48.544,42.442 49.934,42.602 50.111 C 42.685 50.203,42.630 50.207,42.482 50.121 C 42.193 49.955,40.396 51.425,40.499 51.744 C 40.531 51.842,40.467 51.867,40.357 51.799 C 40.140 51.664,38.521 52.990,37.676 53.994 C 37.385 54.339,37.026 54.622,36.877 54.622 C 36.537 54.622,28.151 62.978,28.151 63.316 C 28.151 63.453,27.632 64.078,26.997 64.705 C 26.362 65.332,25.865 65.988,25.894 66.164 C 25.922 66.339,25.843 66.484,25.717 66.487 C 25.592 66.489,25.100 66.964,24.625 67.542 C 24.149 68.120,23.485 68.923,23.148 69.328 C 22.811 69.732,22.473 70.263,22.396 70.508 C 22.320 70.753,22.072 71.122,21.843 71.328 C 21.615 71.535,21.429 71.801,21.429 71.920 C 21.429 72.039,21.235 72.343,20.997 72.596 C 20.760 72.848,20.552 73.250,20.534 73.488 C 20.516 73.726,20.402 73.903,20.282 73.883 C 20.162 73.862,19.804 74.356,19.487 74.981 C 19.170 75.607,18.788 76.268,18.637 76.452 C 18.398 76.743,17.438 78.486,17.007 79.412 C 16.927 79.585,16.565 80.313,16.203 81.028 C 15.842 81.744,15.546 82.444,15.546 82.583 C 15.546 82.722,15.319 83.318,15.041 83.908 C 14.763 84.497,14.377 85.452,14.182 86.029 C 13.987 86.607,13.742 87.244,13.637 87.445 C 13.532 87.645,13.445 87.994,13.445 88.220 C 13.445 88.446,13.351 88.689,13.235 88.761 C 13.120 88.832,13.025 89.122,13.025 89.406 C 13.025 89.690,12.942 90.086,12.840 90.286 C 12.371 91.209,11.762 94.292,11.657 96.280 C 11.621 96.949,11.493 97.616,11.371 97.762 C 11.187 97.984,11.054 101.108,10.939 107.878 C 10.913 109.408,11.190 112.103,11.399 112.355 C 11.525 112.507,11.614 113.152,11.598 113.787 C 11.581 114.423,11.761 115.717,11.999 116.663 C 12.642 119.228,12.829 120.003,12.957 120.643 C 13.021 120.962,13.157 121.275,13.260 121.338 C 13.362 121.402,13.445 121.679,13.445 121.954 C 13.445 122.229,13.540 122.513,13.655 122.584 C 13.771 122.655,13.866 122.894,13.866 123.115 C 13.866 123.493,14.043 123.964,14.932 125.945 C 15.139 126.408,15.373 127.022,15.451 127.311 C 15.714 128.278,18.378 133.505,18.750 133.783 C 18.952 133.934,19.118 134.196,19.118 134.365 C 19.118 134.789,20.146 136.383,20.342 136.262 C 20.429 136.208,20.515 136.349,20.532 136.577 C 20.549 136.804,20.805 137.277,21.101 137.628 C 21.397 137.980,21.639 138.387,21.639 138.534 C 21.639 138.681,21.828 138.972,22.059 139.181 C 22.290 139.390,22.479 139.670,22.479 139.802 C 22.479 139.935,22.810 140.364,23.214 140.756 C 23.619 141.148,23.950 141.578,23.950 141.710 C 23.950 141.843,24.152 142.132,24.400 142.352 C 24.647 142.572,25.008 143.009,25.202 143.322 C 25.395 143.636,26.115 144.487,26.801 145.213 C 27.488 145.939,28.283 146.864,28.568 147.269 C 29.182 148.140,31.752 150.753,31.938 150.695 C 32.010 150.673,32.203 150.858,32.368 151.106 C 33.478 152.775,40.777 159.175,41.243 158.887 C 41.358 158.817,41.389 158.859,41.313 158.982 C 41.237 159.105,41.452 159.427,41.791 159.697 C 42.130 159.968,42.760 160.473,43.192 160.819 C 43.623 161.166,44.258 161.622,44.603 161.833 C 44.948 162.044,45.880 162.735,46.675 163.370 C 47.470 164.004,48.301 164.536,48.521 164.553 C 48.741 164.569,48.903 164.674,48.883 164.785 C 48.862 164.896,49.037 165.089,49.272 165.214 C 49.508 165.339,49.927 165.654,50.205 165.914 C 50.482 166.174,50.820 166.387,50.954 166.387 C 51.089 166.387,51.454 166.623,51.766 166.912 C 52.078 167.201,52.455 167.437,52.604 167.437 C 52.754 167.437,53.047 167.626,53.256 167.857 C 53.465 168.088,53.752 168.277,53.893 168.277 C 54.035 168.277,54.272 168.424,54.420 168.602 C 54.568 168.781,55.171 169.166,55.759 169.457 C 56.347 169.748,57.205 170.255,57.666 170.584 C 58.127 170.912,58.583 171.132,58.681 171.072 C 58.778 171.012,58.992 171.156,59.157 171.391 C 59.438 171.792,61.275 172.804,61.974 172.942 C 62.147 172.976,62.385 173.127,62.503 173.276 C 62.621 173.426,62.923 173.564,63.172 173.582 C 63.422 173.601,63.609 173.710,63.588 173.824 C 63.551 174.030,75.291 180.042,75.730 180.042 C 75.854 180.042,76.797 180.467,77.825 180.987 C 78.852 181.507,79.831 181.933,79.999 181.933 C 80.167 181.933,80.863 182.216,81.545 182.563 C 82.228 182.910,82.901 183.194,83.042 183.194 C 83.183 183.195,83.763 183.431,84.332 183.719 C 84.900 184.008,85.533 184.244,85.737 184.244 C 85.942 184.244,86.164 184.331,86.230 184.438 C 86.296 184.544,86.845 184.792,87.450 184.989 C 88.055 185.185,88.640 185.429,88.750 185.530 C 88.860 185.631,89.124 185.714,89.338 185.714 C 89.551 185.714,90.104 185.897,90.565 186.120 C 91.027 186.343,91.683 186.586,92.023 186.661 C 92.364 186.736,92.696 186.884,92.762 186.991 C 92.828 187.098,93.107 187.185,93.382 187.185 C 93.658 187.185,93.941 187.279,94.013 187.395 C 94.084 187.511,94.354 187.605,94.613 187.605 C 94.872 187.605,95.174 187.686,95.284 187.785 C 95.580 188.052,97.717 188.698,97.853 188.562 C 97.917 188.497,98.140 188.598,98.347 188.786 C 98.554 188.973,98.862 189.073,99.031 189.009 C 99.201 188.944,99.452 189.027,99.590 189.193 C 99.728 189.360,100.047 189.496,100.299 189.496 C 100.550 189.496,100.846 189.577,100.956 189.676 C 101.157 189.856,102.399 190.263,104.260 190.757 C 104.811 190.904,105.313 191.106,105.375 191.205 C 105.437 191.305,105.716 191.387,105.995 191.387 C 106.275 191.387,107.229 191.630,108.116 191.928 C 109.003 192.226,109.897 192.425,110.103 192.371 C 110.309 192.317,110.527 192.405,110.589 192.565 C 110.651 192.726,110.982 192.857,111.326 192.857 C 111.669 192.857,112.012 192.958,112.088 193.081 C 112.164 193.204,112.477 193.278,112.784 193.246 C 113.090 193.214,113.482 193.279,113.656 193.390 C 113.829 193.501,114.396 193.701,114.916 193.834 C 115.436 193.967,116.476 194.232,117.227 194.423 C 117.978 194.613,118.757 194.859,118.957 194.969 C 119.158 195.078,119.703 195.168,120.168 195.168 C 120.633 195.168,121.178 195.260,121.379 195.373 C 121.802 195.611,126.417 196.639,127.061 196.639 C 127.300 196.639,127.555 196.733,127.626 196.849 C 127.697 196.964,128.076 197.059,128.466 197.059 C 128.857 197.059,129.235 197.153,129.307 197.269 C 129.378 197.384,129.756 197.479,130.146 197.479 C 130.536 197.479,131.101 197.572,131.401 197.687 C 131.702 197.801,132.488 197.934,133.148 197.982 C 133.808 198.030,134.615 198.173,134.940 198.300 C 135.265 198.426,135.837 198.529,136.211 198.529 C 136.585 198.529,136.981 198.615,137.090 198.720 C 137.200 198.825,137.763 198.955,138.340 199.009 C 138.918 199.063,140.431 199.312,141.702 199.562 C 142.973 199.813,144.239 199.977,144.516 199.927 C 144.792 199.877,145.333 199.968,145.717 200.128 C 146.101 200.289,146.825 200.420,147.325 200.420 C 147.826 200.420,148.326 200.511,148.438 200.622 C 148.549 200.734,149.229 200.842,149.950 200.864 C 150.671 200.886,151.261 200.970,151.261 201.052 C 151.261 201.134,151.993 201.260,152.889 201.334 C 153.784 201.407,156.455 201.711,158.824 202.009 C 171.814 203.645,187.163 204.322,206.585 204.118 C 213.153 204.049,218.607 203.943,218.705 203.882 C 218.802 203.822,220.235 203.727,221.889 203.673 C 225.542 203.551,227.554 203.375,227.438 203.187 C 227.390 203.110,228.433 203.078,229.756 203.117 C 231.109 203.157,232.272 203.099,232.414 202.984 C 232.554 202.872,233.611 202.764,234.763 202.743 C 235.916 202.722,236.956 202.626,237.074 202.529 C 237.193 202.432,238.424 202.245,239.811 202.112 C 241.197 201.980,243.088 201.781,244.013 201.671 C 244.937 201.560,246.426 201.409,247.321 201.335 C 248.217 201.261,248.950 201.119,248.950 201.020 C 248.950 200.921,249.558 200.840,250.303 200.840 C 251.047 200.840,251.707 200.757,251.770 200.656 C 251.833 200.554,252.429 200.414,253.095 200.344 C 253.762 200.275,254.827 200.132,255.462 200.028 C 256.098 199.923,257.413 199.728,258.385 199.593 C 259.357 199.458,260.320 199.258,260.524 199.149 C 260.729 199.039,261.364 198.950,261.935 198.950 C 262.583 198.950,263.068 198.836,263.225 198.647 C 263.363 198.480,263.610 198.396,263.773 198.458 C 263.937 198.521,264.521 198.475,265.071 198.357 C 265.621 198.238,266.660 198.027,267.380 197.887 C 268.099 197.748,268.651 197.573,268.605 197.500 C 268.560 197.426,268.882 197.400,269.321 197.442 C 269.760 197.484,270.183 197.415,270.261 197.289 C 270.339 197.162,270.864 197.059,271.429 197.059 C 271.993 197.059,272.503 196.980,272.562 196.884 C 272.621 196.788,273.360 196.587,274.203 196.437 C 275.046 196.286,276.444 195.975,277.311 195.744 C 278.178 195.514,279.217 195.279,279.622 195.222 C 280.026 195.165,280.477 195.022,280.624 194.904 C 280.771 194.786,281.286 194.654,281.768 194.610 C 282.250 194.567,283.312 194.342,284.127 194.110 C 284.942 193.878,285.987 193.587,286.450 193.463 C 286.912 193.338,287.435 193.163,287.613 193.073 C 287.791 192.983,288.334 192.842,288.821 192.760 C 289.308 192.677,289.706 192.518,289.706 192.406 C 289.706 192.294,289.797 192.258,289.908 192.327 C 290.149 192.476,292.665 191.859,292.952 191.580 C 293.061 191.474,293.357 191.387,293.609 191.387 C 293.860 191.387,294.179 191.250,294.317 191.084 C 294.456 190.917,294.686 190.826,294.829 190.881 C 295.140 191.001,297.427 190.430,297.767 190.149 C 297.897 190.040,298.051 189.967,298.109 189.985 C 298.260 190.032,300.036 189.491,300.470 189.265 C 300.670 189.161,301.019 189.076,301.245 189.076 C 301.471 189.076,301.714 188.981,301.786 188.866 C 301.857 188.750,302.125 188.655,302.382 188.655 C 302.638 188.655,303.034 188.525,303.262 188.365 C 303.490 188.206,303.724 188.087,303.782 188.101 C 303.932 188.138,305.665 187.599,306.408 187.283 C 306.754 187.135,307.463 186.892,307.983 186.743 C 308.503 186.593,309.239 186.301,309.618 186.093 C 309.997 185.885,310.414 185.714,310.545 185.714 C 310.946 185.714,312.395 185.015,312.395 184.821 C 312.395 184.721,312.498 184.703,312.623 184.780 C 312.859 184.926,314.496 184.284,314.496 184.046 C 314.496 183.973,314.764 183.892,315.092 183.867 C 315.420 183.842,316.152 183.586,316.720 183.298 C 317.288 183.010,317.867 182.774,318.008 182.774 C 318.149 182.774,318.601 182.584,319.013 182.353 C 319.424 182.122,319.890 181.933,320.048 181.933 C 320.398 181.933,324.535 179.865,324.691 179.612 C 324.753 179.512,324.938 179.482,325.103 179.545 C 325.457 179.681,335.488 174.713,335.872 174.212 C 336.016 174.023,336.267 173.850,336.428 173.826 C 336.590 173.802,336.991 173.638,337.321 173.461 C 337.651 173.284,338.316 172.944,338.800 172.705 C 339.284 172.466,339.735 172.181,339.802 172.073 C 339.869 171.964,340.437 171.633,341.063 171.336 C 341.690 171.040,342.261 170.703,342.333 170.587 C 342.404 170.472,342.877 170.188,343.383 169.958 C 343.889 169.727,344.427 169.373,344.578 169.170 C 344.729 168.968,344.995 168.776,345.168 168.744 C 345.683 168.649,346.502 168.219,346.998 167.785 C 347.254 167.561,347.679 167.266,347.944 167.128 C 348.208 166.990,348.407 166.787,348.386 166.676 C 348.365 166.565,348.534 166.460,348.761 166.443 C 348.988 166.426,349.462 166.170,349.813 165.874 C 350.165 165.578,350.563 165.336,350.699 165.335 C 350.834 165.335,351.247 165.051,351.617 164.705 C 351.986 164.359,352.373 164.076,352.477 164.076 C 352.720 164.076,353.393 163.337,353.266 163.210 C 353.213 163.157,353.360 163.099,353.594 163.081 C 353.828 163.064,354.367 162.756,354.793 162.397 C 356.767 160.732,357.638 160.056,358.157 159.783 C 358.466 159.621,359.092 159.102,359.549 158.631 C 360.006 158.159,360.483 157.773,360.609 157.773 C 360.962 157.773,362.425 156.193,362.242 156.009 C 362.153 155.920,362.222 155.879,362.395 155.917 C 362.569 155.956,362.684 155.863,362.652 155.709 C 362.621 155.556,362.681 155.484,362.786 155.549 C 362.891 155.614,363.094 155.527,363.237 155.355 C 363.380 155.183,363.604 155.042,363.736 155.042 C 364.032 155.042,371.429 147.662,371.429 147.366 C 371.429 147.249,372.090 146.496,372.899 145.693 C 373.708 144.891,374.370 144.148,374.370 144.044 C 374.370 143.939,374.701 143.487,375.105 143.040 C 375.509 142.592,375.840 142.102,375.840 141.950 C 375.840 141.799,376.126 141.401,376.476 141.066 C 376.826 140.731,377.068 140.343,377.014 140.202 C 376.960 140.062,377.151 139.794,377.438 139.606 C 377.725 139.418,378.052 139.056,378.165 138.802 C 378.278 138.548,378.654 137.962,379.001 137.500 C 379.348 137.038,379.838 136.234,380.090 135.714 C 380.342 135.194,380.667 134.674,380.812 134.559 C 381.521 133.996,385.936 124.521,385.632 124.217 C 385.561 124.147,385.630 123.939,385.785 123.757 C 386.103 123.381,387.282 119.846,387.510 118.583 C 387.592 118.126,387.732 117.658,387.820 117.542 C 388.015 117.286,388.250 115.621,388.302 114.128 C 388.323 113.522,388.400 113.025,388.473 113.025 C 389.050 113.025,389.355 101.024,388.844 98.424 C 388.730 97.847,388.583 96.829,388.516 96.163 C 388.449 95.496,388.311 94.900,388.210 94.837 C 388.108 94.774,388.025 94.302,388.025 93.787 C 388.025 93.273,387.940 92.687,387.835 92.487 C 387.730 92.286,387.551 91.744,387.437 91.282 C 386.979 89.419,386.474 87.840,386.360 87.910 C 386.294 87.951,386.218 87.693,386.193 87.338 C 386.167 86.983,386.049 86.595,385.930 86.476 C 385.811 86.358,385.714 86.049,385.714 85.790 C 385.714 85.531,385.627 85.265,385.520 85.199 C 385.414 85.133,385.260 84.776,385.179 84.406 C 385.097 84.035,384.953 83.587,384.859 83.410 C 384.765 83.233,383.936 81.561,383.018 79.694 C 382.101 77.827,381.055 75.872,380.696 75.349 C 380.336 74.827,380.042 74.329,380.042 74.243 C 380.042 74.158,379.911 73.938,379.750 73.756 C 379.590 73.574,379.214 72.952,378.915 72.374 C 378.617 71.796,378.091 71.016,377.748 70.641 C 377.405 70.265,377.176 69.958,377.239 69.958 C 377.303 69.958,377.063 69.626,376.706 69.220 C 376.350 68.814,375.920 68.215,375.752 67.889 C 375.583 67.563,375.108 67.039,374.697 66.725 C 374.286 66.412,373.950 66.010,373.950 65.832 C 373.950 65.655,373.382 64.919,372.689 64.197 C 371.996 63.475,371.429 62.799,371.429 62.694 C 371.429 62.427,364.023 55.042,363.756 55.042 C 363.635 55.042,363.019 54.514,362.388 53.868 C 361.756 53.222,360.767 52.387,360.189 52.013 C 359.611 51.639,358.902 51.034,358.613 50.668 C 358.325 50.303,357.970 50.003,357.826 50.002 C 357.682 50.001,357.198 49.669,356.750 49.265 C 356.303 48.860,355.882 48.529,355.816 48.529 C 355.750 48.529,355.336 48.199,354.896 47.795 C 354.456 47.391,354.014 47.060,353.912 47.060 C 353.810 47.059,353.361 46.728,352.914 46.324 C 352.466 45.919,351.959 45.588,351.787 45.588 C 351.615 45.588,351.356 45.399,351.212 45.168 C 351.067 44.937,350.838 44.748,350.701 44.748 C 350.564 44.748,350.172 44.512,349.828 44.223 C 349.485 43.934,349.114 43.697,349.004 43.697 C 348.894 43.697,348.634 43.508,348.424 43.277 C 348.215 43.046,347.954 42.857,347.844 42.857 C 347.735 42.857,347.364 42.621,347.021 42.332 C 346.677 42.043,346.267 41.807,346.109 41.807 C 345.951 41.807,345.699 41.639,345.548 41.434 C 345.397 41.230,344.871 40.884,344.379 40.667 C 343.887 40.449,343.376 40.139,343.242 39.978 C 343.108 39.817,342.612 39.501,342.140 39.275 C 341.668 39.049,340.903 38.634,340.441 38.351 C 339.263 37.631,337.534 36.763,337.323 36.786 C 337.225 36.797,336.894 36.575,336.588 36.293 C 336.022 35.773,324.735 30.042,324.277 30.042 C 324.140 30.042,323.194 29.617,322.175 29.097 C 321.156 28.577,320.209 28.151,320.071 28.151 C 319.932 28.151,319.354 27.915,318.786 27.627 C 318.217 27.339,317.644 27.102,317.511 27.102 C 317.378 27.101,316.758 26.832,316.132 26.503 C 315.507 26.174,314.765 25.852,314.483 25.789 C 313.738 25.620,312.617 25.207,311.692 24.760 C 311.248 24.545,310.755 24.370,310.596 24.370 C 310.437 24.370,309.997 24.200,309.618 23.991 C 309.239 23.783,308.314 23.437,307.563 23.221 C 306.812 23.005,306.108 22.750,305.998 22.654 C 305.888 22.558,305.600 22.479,305.357 22.479 C 305.114 22.479,304.826 22.404,304.716 22.311 C 304.362 22.014,302.335 21.389,302.132 21.515 C 302.023 21.581,301.876 21.484,301.805 21.298 C 301.718 21.070,301.506 20.993,301.154 21.060 C 300.859 21.117,300.530 21.036,300.396 20.874 C 300.265 20.717,299.980 20.588,299.761 20.588 C 299.543 20.588,299.200 20.495,298.999 20.381 C 298.435 20.061,296.160 19.357,295.190 19.202 C 294.711 19.125,294.268 18.980,294.206 18.880 C 294.144 18.780,293.881 18.697,293.622 18.697 C 293.363 18.697,293.061 18.616,292.952 18.515 C 292.842 18.415,292.090 18.171,291.282 17.972 C 290.473 17.774,289.647 17.525,289.446 17.419 C 289.245 17.313,288.897 17.227,288.671 17.227 C 288.445 17.227,288.208 17.142,288.144 17.039 C 288.080 16.936,287.673 16.802,287.239 16.741 C 286.383 16.622,285.742 16.466,282.930 15.697 C 281.918 15.421,281.028 15.132,280.951 15.055 C 280.875 14.979,280.503 14.916,280.124 14.916 C 279.746 14.916,279.378 14.821,279.307 14.706 C 279.235 14.590,278.922 14.496,278.612 14.496 C 277.924 14.497,273.568 13.498,273.060 13.223 C 272.859 13.114,272.189 13.025,271.571 13.025 C 270.954 13.025,270.378 12.954,270.291 12.868 C 270.060 12.635,267.687 12.150,266.597 12.113 C 266.077 12.095,265.590 11.995,265.515 11.892 C 265.440 11.789,264.898 11.694,264.311 11.682 C 263.669 11.669,263.202 11.555,263.141 11.397 C 263.075 11.228,262.593 11.134,261.784 11.134 C 261.094 11.134,260.477 11.050,260.413 10.947 C 260.349 10.843,259.942 10.715,259.508 10.662 C 256.929 10.346,252.572 9.614,252.261 9.443 C 252.061 9.334,251.300 9.244,250.570 9.244 C 249.841 9.244,249.154 9.157,249.044 9.051 C 248.934 8.944,248.230 8.811,247.479 8.754 C 246.728 8.697,245.263 8.552,244.223 8.432 C 241.073 8.067,238.138 7.816,237.996 7.900 C 237.923 7.943,237.746 7.838,237.603 7.666 C 237.401 7.422,236.815 7.353,234.966 7.353 C 233.607 7.353,232.532 7.263,232.458 7.143 C 232.385 7.025,231.396 6.933,230.212 6.933 C 229.047 6.933,227.753 6.840,227.335 6.726 C 225.065 6.109,198.046 5.675,184.244 6.035 M203.661 32.263 C 204.080 32.681,204.076 32.811,203.584 35.261 C 203.359 36.377,202.977 38.377,202.734 39.706 C 202.491 41.035,201.781 44.769,201.155 48.004 C 199.194 58.154,199.191 58.180,200.011 58.619 C 200.244 58.744,204.792 58.826,211.698 58.830 C 230.856 58.841,238.049 60.640,243.806 66.858 C 248.589 72.023,249.150 75.854,246.985 88.550 C 246.354 92.248,245.074 99.764,244.139 105.252 C 243.205 110.741,242.199 116.602,241.904 118.277 C 241.609 119.953,240.854 124.392,240.225 128.142 C 239.281 133.777,239.008 135.035,238.653 135.390 C 238.221 135.822,216.669 136.204,214.539 135.817 C 213.204 135.575,213.166 135.993,215.754 122.374 C 215.974 121.218,216.586 117.957,217.115 115.126 C 217.644 112.295,218.448 108.088,218.902 105.777 C 219.356 103.466,220.169 99.212,220.708 96.324 C 221.248 93.435,221.824 90.362,221.988 89.496 C 222.602 86.257,222.687 85.566,222.683 83.824 C 222.677 80.596,221.313 78.977,218.086 78.365 C 216.092 77.987,196.199 78.083,195.641 78.474 C 195.016 78.912,195.393 77.176,189.389 107.261 C 183.513 136.704,183.793 135.446,183.054 135.727 C 182.292 136.017,161.163 135.986,160.325 135.694 C 159.411 135.375,159.434 135.007,160.820 128.006 C 161.455 124.793,162.453 119.706,163.036 116.702 C 163.620 113.697,164.371 109.916,164.707 108.298 C 165.042 106.681,165.661 103.561,166.081 101.366 C 166.502 99.170,167.681 93.167,168.702 88.025 C 170.473 79.107,175.208 55.134,177.229 44.853 C 179.561 32.992,179.726 32.305,180.302 32.073 C 181.084 31.758,203.338 31.939,203.661 32.263 M135.607 59.043 C 156.520 61.026,166.501 74.108,163.569 95.693 C 160.704 116.787,144.959 132.964,124.727 135.601 C 122.720 135.863,119.691 135.924,108.836 135.924 C 96.373 135.924,95.393 135.950,94.980 136.292 C 94.521 136.671,94.249 137.975,90.856 156.092 C 89.765 161.918,89.667 162.249,88.947 162.578 C 88.254 162.893,66.882 162.913,66.055 162.599 C 65.501 162.388,65.490 162.351,65.611 161.076 C 65.723 159.897,68.704 144.534,70.796 134.349 C 71.247 132.153,71.722 129.743,71.852 128.992 C 71.981 128.241,72.736 124.364,73.530 120.378 C 74.323 116.392,75.634 109.774,76.443 105.672 C 86.447 54.933,85.433 59.833,86.042 59.296 L 86.578 58.824 109.938 58.824 C 124.525 58.824,134.166 58.906,135.607 59.043 M307.483 59.034 C 326.348 60.704,335.979 70.708,336.001 88.655 C 336.028 109.625,324.150 127.090,305.455 133.572 C 299.226 135.732,297.209 135.924,280.809 135.924 C 268.427 135.924,267.452 135.950,267.041 136.292 C 266.674 136.596,266.450 137.463,265.748 141.282 C 265.280 143.824,264.718 146.801,264.499 147.899 C 263.869 151.049,262.654 157.470,262.259 159.741 C 261.684 163.042,263.089 162.700,249.805 162.768 C 242.090 162.807,238.304 162.754,238.021 162.603 C 237.410 162.276,237.470 161.669,238.746 155.230 C 239.374 152.065,240.369 147.017,240.958 144.013 C 241.547 141.008,242.871 134.296,243.901 129.097 C 244.931 123.897,247.155 112.647,248.843 104.097 C 250.531 95.546,252.612 85.053,253.467 80.777 C 254.323 76.502,255.592 70.096,256.287 66.541 C 257.582 59.924,257.722 59.417,258.353 59.049 C 258.842 58.764,304.281 58.750,307.483 59.034 M106.773 78.285 C 106.213 78.524,105.280 83.014,104.081 91.235 C 103.916 92.365,103.495 94.870,103.145 96.802 C 102.795 98.734,102.228 102.111,101.885 104.307 C 101.542 106.502,100.977 109.905,100.631 111.870 C 99.883 116.111,99.905 115.661,100.420 116.176 C 101.061 116.817,114.111 116.813,118.067 116.170 C 129.722 114.278,135.316 108.538,137.614 96.113 C 139.510 85.861,137.056 80.977,128.887 78.746 C 127.254 78.301,107.690 77.892,106.773 78.285 M278.571 78.571 C 278.340 78.803,278.151 79.078,278.151 79.185 C 278.151 79.291,277.767 81.631,277.297 84.384 C 276.827 87.138,276.261 90.525,276.039 91.912 C 275.818 93.298,274.872 98.971,273.938 104.517 C 272.021 115.901,272.021 115.895,272.594 116.317 C 273.351 116.876,288.556 116.615,291.387 115.995 C 301.998 113.671,307.086 108.446,309.417 97.479 C 311.895 85.819,309.144 80.427,299.723 78.481 C 297.000 77.918,279.148 77.995,278.571 78.571 " stroke="none" fill="#8c93bb" fill-rule="evenodd"></path></g></svg>