<svg id="svg" version="1.1" xmlns="http://www.w3.org/2000/svg" xmlns:xlink="http://www.w3.org/1999/xlink" width="400" height="400" viewBox="0, 0, 400,400"><g id="svgg"><path id="path0" d="M310.488 99.310 C 308.990 99.933,309.027 99.310,308.874 126.522 C 308.792 141.114,308.578 153.742,308.387 155.333 C 308.200 156.892,307.942 159.032,307.815 160.089 C 307.687 161.147,307.452 162.093,307.292 162.192 C 307.131 162.292,307.000 162.880,307.000 163.500 C 307.000 164.120,306.850 164.720,306.667 164.833 C 306.483 164.947,306.333 165.547,306.333 166.167 C 306.333 166.787,306.183 167.387,306.000 167.500 C 305.817 167.613,305.667 168.063,305.667 168.500 C 305.667 168.937,305.517 169.387,305.333 169.500 C 305.150 169.613,305.000 169.999,305.000 170.358 C 305.000 170.716,304.868 171.270,304.706 171.588 C 304.544 171.906,304.262 172.542,304.079 173.000 C 301.058 180.577,295.050 188.941,289.829 192.838 C 289.098 193.383,288.425 193.915,288.333 194.020 C 287.490 194.984,281.525 198.435,279.000 199.420 C 278.542 199.598,277.906 199.877,277.588 200.039 C 277.270 200.201,276.716 200.333,276.358 200.333 C 275.999 200.333,275.613 200.483,275.500 200.667 C 275.387 200.850,274.937 201.000,274.500 201.000 C 274.063 201.000,273.613 201.150,273.500 201.333 C 273.387 201.517,272.787 201.667,272.167 201.667 C 271.547 201.667,270.947 201.817,270.833 202.000 C 270.720 202.183,270.120 202.333,269.500 202.333 C 268.880 202.333,268.280 202.483,268.167 202.667 C 268.053 202.850,267.025 203.000,265.880 203.000 C 264.736 203.000,263.652 203.148,263.472 203.328 C 263.260 203.540,243.852 203.708,208.822 203.801 C 156.138 203.941,149.520 204.040,148.850 204.692 C 148.676 204.861,147.747 205.000,146.786 205.000 C 145.825 205.000,144.947 205.150,144.833 205.333 C 144.720 205.517,144.120 205.667,143.500 205.667 C 142.880 205.667,142.280 205.817,142.167 206.000 C 142.053 206.183,141.453 206.333,140.833 206.333 C 140.213 206.333,139.613 206.483,139.500 206.667 C 139.387 206.850,138.937 207.000,138.500 207.000 C 138.063 207.000,137.613 207.150,137.500 207.333 C 137.387 207.517,137.001 207.667,136.642 207.667 C 136.284 207.667,135.730 207.799,135.412 207.961 C 135.094 208.123,134.458 208.405,134.000 208.588 C 125.720 211.896,115.350 219.337,112.558 223.975 C 112.274 224.447,111.695 225.254,111.271 225.769 C 110.327 226.916,108.971 229.225,107.809 231.667 C 107.328 232.675,106.650 234.077,106.301 234.782 C 105.952 235.486,105.667 236.340,105.667 236.678 C 105.667 237.017,105.517 237.387,105.333 237.500 C 105.150 237.613,105.000 238.063,105.000 238.500 C 105.000 238.937,104.850 239.387,104.667 239.500 C 104.483 239.613,104.333 240.063,104.333 240.500 C 104.333 240.937,104.183 241.387,104.000 241.500 C 103.817 241.613,103.667 242.363,103.667 243.167 C 103.667 243.970,103.517 244.720,103.333 244.833 C 103.150 244.947,103.000 245.847,103.000 246.833 C 103.000 247.820,102.874 248.705,102.719 248.801 C 101.954 249.274,101.625 347.716,102.370 353.500 C 102.970 358.162,103.064 358.667,103.369 358.855 C 103.533 358.956,103.667 359.316,103.667 359.655 C 103.667 359.993,103.988 360.922,104.381 361.718 C 104.773 362.515,105.203 363.467,105.336 363.833 C 105.846 365.242,106.514 366.552,107.406 367.893 C 107.916 368.660,108.333 369.371,108.333 369.473 C 108.333 369.575,108.550 369.923,108.815 370.246 C 109.080 370.569,109.973 371.733,110.801 372.833 C 113.875 376.920,120.915 383.132,124.667 385.069 C 125.125 385.305,125.575 385.574,125.667 385.666 C 126.196 386.197,133.991 390.036,136.583 391.042 C 138.967 391.968,140.777 392.716,141.412 393.039 C 141.730 393.201,142.284 393.333,142.642 393.333 C 143.001 393.333,143.387 393.483,143.500 393.667 C 143.613 393.850,144.138 394.000,144.667 394.000 C 145.195 394.000,145.720 394.150,145.833 394.333 C 145.947 394.517,146.472 394.667,147.000 394.667 C 147.528 394.667,148.053 394.817,148.167 395.000 C 148.280 395.183,148.880 395.333,149.500 395.333 C 150.120 395.333,150.720 395.483,150.833 395.667 C 150.947 395.850,151.547 396.000,152.167 396.000 C 152.787 396.000,153.387 396.150,153.500 396.333 C 153.613 396.517,154.213 396.667,154.833 396.667 C 155.453 396.667,156.053 396.817,156.167 397.000 C 156.280 397.183,157.030 397.333,157.833 397.333 C 158.637 397.333,159.375 397.465,159.474 397.625 C 159.573 397.785,160.445 398.009,161.411 398.122 C 162.376 398.234,164.067 398.479,165.167 398.666 C 171.446 399.730,173.243 399.783,202.833 399.783 C 224.974 399.783,233.619 399.674,235.833 399.367 C 237.483 399.138,239.658 398.874,240.667 398.780 C 241.675 398.685,242.643 398.471,242.817 398.304 C 242.991 398.137,243.919 398.000,244.880 398.000 C 245.841 398.000,246.720 397.850,246.833 397.667 C 246.947 397.483,247.697 397.333,248.500 397.333 C 249.303 397.333,250.053 397.183,250.167 397.000 C 250.280 396.817,250.880 396.667,251.500 396.667 C 252.120 396.667,252.720 396.517,252.833 396.333 C 252.947 396.150,253.547 396.000,254.167 396.000 C 254.787 396.000,255.387 395.850,255.500 395.667 C 255.613 395.483,256.213 395.333,256.833 395.333 C 257.453 395.333,258.053 395.183,258.167 395.000 C 258.280 394.817,258.880 394.667,259.500 394.667 C 260.120 394.667,260.720 394.517,260.833 394.333 C 260.947 394.150,261.397 394.000,261.833 394.000 C 262.270 394.000,262.720 393.850,262.833 393.667 C 262.947 393.483,263.333 393.333,263.691 393.333 C 264.049 393.333,264.603 393.201,264.921 393.039 C 265.240 392.877,265.950 392.559,266.500 392.333 C 267.050 392.107,267.760 391.790,268.079 391.628 C 268.397 391.466,268.870 391.333,269.131 391.333 C 269.391 391.333,270.180 391.048,270.885 390.699 C 271.590 390.350,273.292 389.521,274.667 388.856 C 277.420 387.525,279.694 386.256,281.051 385.294 C 281.538 384.949,282.101 384.667,282.301 384.667 C 282.502 384.667,282.667 384.549,282.667 384.405 C 282.667 384.261,283.111 383.881,283.655 383.560 C 284.198 383.239,284.835 382.794,285.071 382.570 C 285.307 382.347,286.324 381.489,287.332 380.665 C 291.809 377.004,298.000 368.311,298.000 365.687 C 298.000 365.383,298.123 364.991,298.272 364.817 C 299.418 363.486,299.502 361.229,299.387 334.833 C 299.286 311.821,299.213 308.766,298.752 308.250 C 298.259 307.700,295.518 307.667,250.115 307.667 L 202.000 307.667 202.000 302.492 L 202.000 297.318 274.101 297.342 C 323.714 297.359,346.489 297.258,347.123 297.017 C 347.629 296.824,348.625 296.667,349.335 296.667 C 350.046 296.667,350.720 296.517,350.833 296.333 C 350.947 296.150,351.547 296.000,352.167 296.000 C 352.787 296.000,353.387 295.850,353.500 295.667 C 353.613 295.483,354.063 295.333,354.500 295.333 C 354.937 295.333,355.387 295.183,355.500 295.000 C 355.613 294.817,356.063 294.667,356.500 294.667 C 356.937 294.667,357.387 294.517,357.500 294.333 C 357.613 294.150,357.983 294.000,358.322 294.000 C 358.660 294.000,359.514 293.714,360.218 293.365 C 360.923 293.016,362.325 292.338,363.333 291.858 C 365.426 290.861,367.759 289.543,369.051 288.627 C 369.538 288.282,370.101 288.000,370.301 288.000 C 370.502 288.000,370.667 287.882,370.667 287.739 C 370.667 287.595,371.096 287.224,371.620 286.914 C 372.145 286.604,373.157 285.826,373.870 285.185 C 374.583 284.544,375.917 283.387,376.833 282.613 C 378.229 281.434,379.440 280.141,382.833 276.204 C 384.307 274.494,388.000 269.222,388.000 268.828 C 388.000 268.714,388.420 267.993,388.933 267.227 C 389.775 265.969,392.974 259.617,393.706 257.750 C 394.757 255.068,395.387 253.548,395.706 252.921 C 395.868 252.603,396.000 252.049,396.000 251.691 C 396.000 251.333,396.150 250.947,396.333 250.833 C 396.517 250.720,396.667 250.270,396.667 249.833 C 396.667 249.397,396.817 248.947,397.000 248.833 C 397.183 248.720,397.333 248.120,397.333 247.500 C 397.333 246.880,397.483 246.280,397.667 246.167 C 397.850 246.053,398.000 245.603,398.000 245.167 C 398.000 244.730,398.150 244.280,398.333 244.167 C 398.517 244.053,398.667 243.453,398.667 242.833 C 398.667 242.213,398.801 241.623,398.965 241.522 C 399.129 241.420,399.375 240.699,399.511 239.919 C 399.911 237.636,400.065 159.932,399.671 159.537 C 399.485 159.352,399.333 158.564,399.333 157.786 C 399.333 157.009,399.183 156.280,399.000 156.167 C 398.817 156.053,398.667 155.453,398.667 154.833 C 398.667 154.213,398.517 153.613,398.333 153.500 C 398.150 153.387,398.000 152.787,398.000 152.167 C 398.000 151.547,397.850 150.947,397.667 150.833 C 397.483 150.720,397.333 150.270,397.333 149.833 C 397.333 149.397,397.183 148.947,397.000 148.833 C 396.817 148.720,396.667 148.120,396.667 147.500 C 396.667 146.880,396.517 146.280,396.333 146.167 C 396.150 146.053,396.000 145.667,396.000 145.309 C 396.000 144.951,395.827 144.322,395.615 143.912 C 394.805 142.347,394.667 141.994,394.667 141.500 C 394.667 141.220,394.533 140.730,394.370 140.412 C 393.954 139.601,392.633 136.634,392.331 135.833 C 391.716 134.201,389.112 129.039,388.266 127.773 C 387.753 127.007,387.333 126.288,387.333 126.175 C 387.333 126.062,386.546 124.832,385.583 123.440 C 384.621 122.049,383.683 120.676,383.500 120.390 C 383.317 120.103,382.658 119.301,382.036 118.608 C 381.415 117.915,380.668 117.007,380.376 116.590 C 379.624 115.516,376.807 112.761,374.661 111.001 C 373.656 110.177,372.640 109.320,372.405 109.097 C 372.169 108.873,371.531 108.427,370.988 108.106 C 370.445 107.786,370.000 107.405,370.000 107.261 C 370.000 107.118,369.840 107.000,369.643 107.000 C 369.447 107.000,368.660 106.581,367.893 106.069 C 366.605 105.207,362.959 103.366,361.000 102.587 C 360.542 102.405,359.906 102.123,359.588 101.961 C 359.270 101.799,358.716 101.667,358.358 101.667 C 357.999 101.667,357.613 101.517,357.500 101.333 C 357.387 101.150,356.937 101.000,356.500 101.000 C 356.063 101.000,355.613 100.850,355.500 100.667 C 355.387 100.483,354.808 100.333,354.214 100.333 C 353.619 100.333,352.991 100.197,352.817 100.029 C 352.050 99.294,312.159 98.616,310.488 99.310 M259.000 335.847 C 259.642 335.956,260.467 336.173,260.833 336.328 C 261.200 336.484,261.987 336.810,262.583 337.053 C 263.179 337.297,263.667 337.609,263.667 337.748 C 263.667 337.887,263.883 338.000,264.148 338.000 C 264.775 338.000,269.000 342.225,269.000 342.852 C 269.000 343.117,269.113 343.333,269.252 343.333 C 269.391 343.333,269.700 343.821,269.940 344.417 C 270.181 345.012,270.517 345.760,270.688 346.079 C 270.860 346.397,271.000 347.101,271.000 347.642 C 271.000 348.184,271.150 348.720,271.333 348.833 C 271.517 348.947,271.667 349.997,271.667 351.167 C 271.667 352.337,271.517 353.387,271.333 353.500 C 271.150 353.613,271.000 354.149,271.000 354.691 C 271.000 355.647,270.897 355.955,270.021 357.629 C 268.732 360.089,268.109 360.948,266.553 362.412 C 265.607 363.302,264.458 364.221,264.000 364.454 C 263.542 364.687,262.867 365.037,262.500 365.233 C 256.088 368.655,245.719 365.616,242.574 359.393 C 242.326 358.902,241.963 358.200,241.767 357.833 C 238.682 352.052,240.131 344.599,245.280 339.769 C 246.317 338.796,247.354 338.000,247.583 338.000 C 247.812 338.000,248.000 337.887,248.000 337.748 C 248.000 337.609,248.487 337.300,249.083 337.060 C 249.679 336.819,250.427 336.483,250.745 336.312 C 251.064 336.140,251.739 335.989,252.245 335.977 C 252.752 335.964,253.467 335.816,253.833 335.649 C 254.477 335.355,256.579 335.435,259.000 335.847 " stroke="none" fill="#fccc39" fill-rule="evenodd"></path><path id="path1" d="M164.000 0.248 C 162.808 0.315,161.691 0.511,161.517 0.684 C 161.343 0.858,160.414 1.000,159.453 1.000 C 158.492 1.000,157.613 1.150,157.500 1.333 C 157.387 1.517,156.487 1.667,155.500 1.667 C 154.513 1.667,153.613 1.817,153.500 2.000 C 153.387 2.183,152.637 2.333,151.833 2.333 C 151.030 2.333,150.280 2.483,150.167 2.667 C 150.053 2.850,149.453 3.000,148.833 3.000 C 148.213 3.000,147.613 3.150,147.500 3.333 C 147.387 3.517,146.787 3.667,146.167 3.667 C 145.547 3.667,144.947 3.817,144.833 4.000 C 144.720 4.183,144.120 4.333,143.500 4.333 C 142.880 4.333,142.280 4.483,142.167 4.667 C 142.053 4.850,141.603 5.000,141.167 5.000 C 140.730 5.000,140.280 5.150,140.167 5.333 C 140.053 5.517,139.603 5.667,139.167 5.667 C 138.730 5.667,138.280 5.817,138.167 6.000 C 138.053 6.183,137.603 6.333,137.167 6.333 C 136.730 6.333,136.280 6.483,136.167 6.667 C 136.053 6.850,135.674 7.000,135.324 7.000 C 134.974 7.000,134.153 7.300,133.500 7.667 C 132.847 8.033,132.114 8.333,131.870 8.333 C 131.463 8.333,128.320 9.773,126.333 10.870 C 125.875 11.123,124.675 11.737,123.667 12.233 C 122.658 12.729,121.758 13.218,121.667 13.318 C 121.575 13.419,121.118 13.698,120.650 13.938 C 117.610 15.500,109.939 22.402,108.306 25.045 C 107.868 25.754,107.395 26.333,107.255 26.333 C 107.115 26.333,107.000 26.494,107.000 26.690 C 107.000 26.886,106.583 27.674,106.073 28.440 C 105.184 29.776,104.775 30.580,103.961 32.583 C 103.756 33.087,103.456 33.760,103.294 34.079 C 103.132 34.397,103.000 34.951,103.000 35.309 C 103.000 35.667,102.850 36.053,102.667 36.167 C 102.483 36.280,102.333 36.941,102.333 37.637 C 102.333 38.332,102.183 39.335,102.000 39.867 C 101.780 40.503,101.752 49.347,101.916 65.769 L 102.167 90.705 103.000 91.345 C 103.813 91.969,105.014 91.985,151.583 91.993 L 199.333 92.000 199.333 96.830 L 199.333 101.659 128.583 101.784 C 80.948 101.868,57.125 102.024,55.667 102.262 C 54.475 102.456,52.784 102.722,51.909 102.852 C 51.034 102.982,50.238 103.219,50.139 103.378 C 50.041 103.537,49.453 103.667,48.833 103.667 C 48.213 103.667,47.613 103.817,47.500 104.000 C 47.387 104.183,46.937 104.333,46.500 104.333 C 46.063 104.333,45.613 104.483,45.500 104.667 C 45.387 104.850,44.937 105.000,44.500 105.000 C 44.063 105.000,43.613 105.150,43.500 105.333 C 43.387 105.517,43.017 105.667,42.678 105.667 C 42.340 105.667,41.449 105.967,40.698 106.333 C 35.780 108.736,33.945 109.733,33.187 110.417 C 32.832 110.737,32.367 111.000,32.155 111.000 C 31.943 111.000,31.498 111.300,31.167 111.667 C 30.835 112.033,30.362 112.333,30.115 112.333 C 29.868 112.333,29.660 112.446,29.651 112.583 C 29.642 112.721,28.896 113.358,27.992 114.000 C 26.113 115.334,19.527 121.920,18.325 123.667 C 17.883 124.308,17.335 125.026,17.106 125.262 C 16.877 125.498,16.427 126.135,16.106 126.679 C 15.786 127.222,15.405 127.667,15.261 127.667 C 15.118 127.667,15.000 127.827,15.000 128.023 C 15.000 128.219,14.569 129.007,14.042 129.773 C 12.381 132.188,9.626 137.350,8.674 139.833 C 8.533 140.200,8.080 141.250,7.667 142.167 C 7.254 143.083,6.767 144.208,6.586 144.667 C 6.404 145.125,6.123 145.760,5.961 146.079 C 5.799 146.397,5.667 146.951,5.667 147.309 C 5.667 147.667,5.517 148.053,5.333 148.167 C 5.150 148.280,5.000 148.730,5.000 149.167 C 5.000 149.603,4.850 150.053,4.667 150.167 C 4.483 150.280,4.333 150.805,4.333 151.333 C 4.333 151.862,4.183 152.387,4.000 152.500 C 3.817 152.613,3.667 153.138,3.667 153.667 C 3.667 154.195,3.517 154.720,3.333 154.833 C 3.150 154.947,3.000 155.547,3.000 156.167 C 3.000 156.787,2.850 157.387,2.667 157.500 C 2.483 157.613,2.333 158.213,2.333 158.833 C 2.333 159.453,2.183 160.053,2.000 160.167 C 1.817 160.280,1.667 161.009,1.667 161.786 C 1.667 162.564,1.531 163.342,1.366 163.517 C 1.200 163.691,0.987 164.508,0.893 165.333 C 0.798 166.158,0.550 168.256,0.342 169.995 C -0.216 174.663,0.005 232.806,0.583 233.384 C 0.812 233.613,1.000 234.586,1.000 235.547 C 1.000 236.508,1.150 237.387,1.333 237.500 C 1.517 237.613,1.667 238.363,1.667 239.167 C 1.667 239.970,1.797 240.708,1.956 240.806 C 2.220 240.969,2.375 241.735,2.894 245.419 C 2.991 246.107,3.205 246.754,3.369 246.855 C 3.533 246.956,3.667 247.397,3.667 247.833 C 3.667 248.270,3.817 248.720,4.000 248.833 C 4.183 248.947,4.333 249.547,4.333 250.167 C 4.333 250.787,4.483 251.387,4.667 251.500 C 4.850 251.613,5.000 252.063,5.000 252.500 C 5.000 252.937,5.150 253.387,5.333 253.500 C 5.517 253.613,5.667 254.063,5.667 254.500 C 5.667 254.937,5.817 255.387,6.000 255.500 C 6.183 255.613,6.333 255.999,6.333 256.358 C 6.333 256.716,6.466 257.270,6.628 257.588 C 6.947 258.215,7.576 259.735,8.627 262.417 C 9.359 264.283,12.559 270.636,13.400 271.893 C 13.914 272.660,14.333 273.380,14.333 273.495 C 14.333 273.941,17.567 278.504,19.994 281.484 C 21.066 282.799,26.201 287.934,27.516 289.006 C 30.031 291.054,31.316 292.000,31.584 292.000 C 31.744 292.000,32.171 292.263,32.535 292.583 C 33.392 293.341,34.729 294.124,37.000 295.197 C 38.008 295.674,39.410 296.350,40.115 296.699 C 40.820 297.048,41.673 297.333,42.012 297.333 C 42.350 297.333,42.720 297.483,42.833 297.667 C 42.947 297.850,43.397 298.000,43.833 298.000 C 44.270 298.000,44.720 298.150,44.833 298.333 C 44.947 298.517,45.397 298.667,45.833 298.667 C 46.270 298.667,46.720 298.817,46.833 299.000 C 46.947 299.183,47.675 299.333,48.453 299.333 C 49.231 299.333,50.024 299.491,50.216 299.683 C 50.868 300.335,91.329 300.108,92.058 299.448 C 92.621 298.938,92.663 297.350,92.786 272.037 C 92.906 247.343,93.055 242.616,93.837 238.833 C 94.452 235.855,95.412 232.094,95.686 231.588 C 95.859 231.270,96.000 230.716,96.000 230.358 C 96.000 229.999,96.150 229.613,96.333 229.500 C 96.517 229.387,96.667 229.001,96.667 228.642 C 96.667 228.284,96.799 227.730,96.961 227.412 C 97.123 227.094,97.405 226.458,97.587 226.000 C 98.366 224.041,100.207 220.395,101.069 219.107 C 101.581 218.340,102.000 217.581,102.000 217.419 C 102.000 217.258,102.277 216.828,102.616 216.464 C 102.955 216.101,103.293 215.645,103.366 215.452 C 104.025 213.724,112.447 205.314,114.134 204.700 C 114.335 204.627,114.575 204.457,114.667 204.322 C 114.912 203.962,117.488 202.519,120.333 201.147 C 121.708 200.484,123.094 199.804,123.412 199.637 C 123.730 199.470,124.284 199.333,124.642 199.333 C 125.001 199.333,125.387 199.183,125.500 199.000 C 125.613 198.817,126.063 198.667,126.500 198.667 C 126.937 198.667,127.387 198.517,127.500 198.333 C 127.613 198.150,128.063 198.000,128.500 198.000 C 128.937 198.000,129.387 197.850,129.500 197.667 C 129.613 197.483,130.213 197.333,130.833 197.333 C 131.453 197.333,132.053 197.183,132.167 197.000 C 132.280 196.817,133.159 196.667,134.120 196.667 C 135.081 196.667,136.054 196.479,136.283 196.250 C 136.612 195.921,148.684 195.795,193.433 195.654 C 236.787 195.517,250.388 195.379,251.105 195.071 C 251.621 194.848,252.775 194.667,253.669 194.667 C 254.563 194.667,255.387 194.517,255.500 194.333 C 255.613 194.150,256.213 194.000,256.833 194.000 C 257.453 194.000,258.053 193.850,258.167 193.667 C 258.280 193.483,258.880 193.333,259.500 193.333 C 260.120 193.333,260.720 193.183,260.833 193.000 C 260.947 192.817,261.547 192.667,262.167 192.667 C 262.787 192.667,263.387 192.517,263.500 192.333 C 263.613 192.150,263.999 192.000,264.358 192.000 C 264.716 192.000,265.270 191.868,265.588 191.706 C 265.906 191.544,266.542 191.263,267.000 191.081 C 270.623 189.647,276.105 186.856,277.146 185.917 C 277.501 185.596,277.977 185.333,278.202 185.333 C 278.427 185.333,278.661 185.212,278.722 185.064 C 278.783 184.916,279.533 184.317,280.389 183.734 C 282.928 182.002,288.005 176.855,289.990 174.000 C 290.436 173.358,290.883 172.758,290.984 172.667 C 291.084 172.575,291.354 172.162,291.583 171.750 C 291.813 171.338,292.188 170.662,292.417 170.250 C 292.646 169.837,292.910 169.425,293.004 169.333 C 293.200 169.143,294.586 166.251,295.081 165.000 C 295.263 164.542,295.544 163.906,295.706 163.588 C 295.868 163.270,296.000 162.716,296.000 162.358 C 296.000 161.999,296.150 161.613,296.333 161.500 C 296.517 161.387,296.667 160.953,296.667 160.536 C 296.667 160.119,296.774 159.671,296.905 159.539 C 297.243 159.201,297.968 156.337,297.985 155.270 C 297.993 154.776,298.150 154.280,298.333 154.167 C 298.517 154.053,298.667 153.025,298.667 151.880 C 298.667 150.736,298.815 149.652,298.996 149.470 C 299.460 149.006,299.471 45.740,299.008 44.520 C 298.820 44.027,298.667 43.192,298.667 42.665 C 298.667 42.137,298.517 41.613,298.333 41.500 C 298.150 41.387,298.000 40.926,298.000 40.476 C 298.000 40.026,297.868 39.397,297.706 39.079 C 297.544 38.760,297.265 38.125,297.086 37.667 C 296.908 37.208,296.440 36.182,296.047 35.385 C 295.655 34.589,295.333 33.726,295.333 33.468 C 295.333 33.211,295.201 33.000,295.039 33.000 C 294.877 33.000,294.656 32.737,294.548 32.417 C 294.271 31.595,293.154 29.723,292.528 29.031 C 292.237 28.710,292.000 28.284,292.000 28.085 C 292.000 27.885,291.882 27.672,291.738 27.611 C 291.593 27.550,290.956 26.829,290.321 26.009 C 288.640 23.838,284.602 19.922,282.227 18.159 C 281.094 17.318,279.902 16.413,279.580 16.148 C 279.257 15.883,278.872 15.667,278.726 15.667 C 278.579 15.667,278.168 15.397,277.813 15.067 C 277.457 14.736,276.942 14.365,276.667 14.241 C 276.392 14.117,275.417 13.566,274.500 13.017 C 272.855 12.032,268.462 9.832,267.167 9.345 C 266.800 9.207,265.848 8.773,265.052 8.381 C 264.255 7.988,263.391 7.667,263.131 7.667 C 262.870 7.667,262.360 7.517,261.995 7.333 C 261.631 7.150,261.035 6.850,260.671 6.667 C 260.307 6.483,259.716 6.333,259.358 6.333 C 258.999 6.333,258.613 6.183,258.500 6.000 C 258.387 5.817,257.862 5.667,257.333 5.667 C 256.805 5.667,256.280 5.517,256.167 5.333 C 256.053 5.150,255.603 5.000,255.167 5.000 C 254.730 5.000,254.280 4.850,254.167 4.667 C 254.053 4.483,253.528 4.333,253.000 4.333 C 252.472 4.333,251.947 4.183,251.833 4.000 C 251.720 3.817,251.195 3.667,250.667 3.667 C 250.138 3.667,249.613 3.517,249.500 3.333 C 249.387 3.150,248.637 3.000,247.833 3.000 C 247.030 3.000,246.280 2.850,246.167 2.667 C 246.053 2.483,245.453 2.333,244.833 2.333 C 244.213 2.333,243.625 2.202,243.526 2.042 C 243.427 1.881,242.555 1.658,241.589 1.545 C 240.624 1.432,238.933 1.189,237.833 1.005 C 232.526 0.117,229.159 0.038,198.500 0.082 C 180.717 0.108,165.192 0.182,164.000 0.248 M148.833 33.000 C 148.947 33.183,149.472 33.333,150.000 33.333 C 150.528 33.333,151.053 33.483,151.167 33.667 C 151.280 33.850,151.599 34.000,151.876 34.000 C 154.091 34.000,160.333 40.865,160.333 43.301 C 160.333 43.612,160.504 44.038,160.713 44.247 C 161.265 44.798,161.240 51.734,160.682 52.910 C 160.441 53.418,160.081 54.208,159.881 54.667 C 158.468 57.909,155.672 60.757,152.333 62.355 C 151.508 62.750,150.573 63.207,150.255 63.370 C 149.452 63.781,141.757 63.749,141.500 63.333 C 141.387 63.150,141.007 63.000,140.657 63.000 C 138.863 63.000,132.667 58.177,132.667 56.780 C 132.667 56.534,132.553 56.333,132.415 56.333 C 132.276 56.333,131.966 55.846,131.726 55.250 C 131.486 54.654,131.149 53.906,130.978 53.588 C 130.807 53.270,130.667 52.716,130.667 52.358 C 130.667 51.999,130.517 51.613,130.333 51.500 C 130.150 51.387,130.000 50.037,130.000 48.500 C 130.000 46.963,130.150 45.613,130.333 45.500 C 130.517 45.387,130.667 44.874,130.667 44.360 C 130.667 40.496,136.498 34.631,141.833 33.129 C 143.529 32.652,148.561 32.559,148.833 33.000 " stroke="none" fill="#347cb0" fill-rule="evenodd"></path></g></svg>